<?xml version="1.0" encoding="utf-8"?>
<!-- Generator: Adobe Illustrator 28.4.1, SVG Export Plug-In . SVG Version: 6.00 Build 0)  -->
<svg version="1.1" id="Слой_1" xmlns="http://www.w3.org/2000/svg" xmlns:xlink="http://www.w3.org/1999/xlink" x="0px" y="0px"
	 viewBox="0 0 19 19" style="enable-background:new 0 0 19 19;" xml:space="preserve">
<style type="text/css">
	.st0{fill:#FFFFFF;}
</style>
<path class="st0" d="M18.5,14.9c0,0.1,0,0.2,0,0.2c0,0,0,0.1,0,0.1c-0.2,0.7-0.8,1.2-1.6,1.2c-4.9,0-9.8,0-14.7,0
	c-1,0-1.7-0.7-1.6-1.7c0.1-3.1,0-6.2,0-9.3c0-1,0.7-1.7,1.7-1.7c4.9,0,9.8,0,14.7,0c0.8,0,1.4,0.4,1.6,1.2c0,0,0.1,0.2,0.1,0.3
	L18.5,14.9L18.5,14.9z M2.4,4.8c1.9,2,3.9,4,5.9,6c0.2,0.2,0.4,0.3,0.6,0.4c0.7,0.2,1.3,0.1,1.7-0.4c2-1.9,3.9-3.9,5.9-5.8
	c0,0,0.1-0.1,0.1-0.1c0,0,0,0,0,0C11.9,4.8,7.1,4.8,2.4,4.8z M2.3,15.2C2.3,15.3,2.3,15.3,2.3,15.2c4.8,0,9.6,0,14.3,0
	c-0.4-0.4-0.7-0.7-1.1-1.1c-1.1-1.1-2.2-2.2-3.4-3.3c-0.1-0.1-0.2-0.1-0.2,0c-0.2,0.2-0.4,0.4-0.6,0.6c-1,1-2.4,1.1-3.5,0.2
	c-0.3-0.3-0.6-0.6-0.9-0.9c-0.1-0.1-0.2-0.1-0.3,0c-1.4,1.4-2.8,2.8-4.3,4.2C2.4,15.2,2.4,15.2,2.3,15.2z M1.6,5.5
	C1.6,5.5,1.6,5.5,1.6,5.5c0,3,0,6,0,9c0,0,0,0,0.1,0.1c1.4-1.5,2.9-3,4.3-4.4c0.1-0.1,0.1-0.2,0-0.3C4.6,8.5,3.1,7.1,1.7,5.6
	C1.7,5.6,1.6,5.5,1.6,5.5z M17.4,14.6C17.4,14.6,17.4,14.5,17.4,14.6c0.1-3.1,0.1-6,0.1-9c0,0,0,0,0,0c-1.5,1.5-3,2.9-4.4,4.4
	c-0.1,0.1,0,0.1,0,0.2C14.4,11.6,15.9,13.1,17.4,14.6z"/>
</svg>
