<?xml version="1.0" encoding="utf-8"?>
<!-- Generator: Adobe Illustrator 28.4.1, SVG Export Plug-In . SVG Version: 6.00 Build 0)  -->
<svg version="1.1" id="Слой_1" xmlns="http://www.w3.org/2000/svg" xmlns:xlink="http://www.w3.org/1999/xlink" x="0px" y="0px"
	 viewBox="0 0 19 19" style="enable-background:new 0 0 19 19;" xml:space="preserve">
<style type="text/css">
	.st0{display:none;}
	.st1{display:inline;}
	.st2{fill:#704922;}
	.st3{fill:#FFFFFF;}
</style>
<g id="logo" class="st0">
	<g class="st1">
		<path class="st2" d="M9.5-227.3c4.5,6.9,11.4,18.5,18.2,32.8c18.7,39.5,22.1,69.8,21.6,88.2c-0.6,27.2-8,50.3-21.9,68.9
			C20.3-28,13.3-22.2,9.5-19.5C5.7-22.2-1.4-28-8.4-37.4c-13.9-18.5-21.3-41.7-21.9-68.9c-0.8-33.5,11.3-66.5,21.6-88.2
			C-1.9-208.9,5-220.4,9.5-227.3 M9.5-238.1c0,0-47.5,64.7-45.9,131.9c1.6,69.3,45.9,93.8,45.9,93.8S53.7-37,55.4-106.2
			C57-173.3,9.5-238.1,9.5-238.1L9.5-238.1z"/>
	</g>
	<g class="st1">
		<path class="st2" d="M106.7-52.2c32.9,0,65.1,12.1,86.2,22.3c13.8,6.6,24.9,13.3,31.7,17.7c-6.7,4.3-17.8,11-31.7,17.7
			c-38.4,18.4-68.1,22.3-86.2,22.3c-1.1,0-2.1,0-3.2,0c-27.2-0.6-50.3-8-68.9-21.9C25.2-1.2,19.4-8.2,16.7-12
			c2.7-3.8,8.5-10.9,17.9-17.9c18.5-13.9,41.7-21.3,68.9-21.9C104.5-52.2,105.6-52.2,106.7-52.2 M106.7-58.2c-1.1,0-2.2,0-3.3,0
			C34.1-56.6,9.6-12.3,9.6-12.3s24.6,44.2,93.8,45.9c1.1,0,2.2,0,3.3,0c66,0,128.6-45.9,128.6-45.9S172.7-58.2,106.7-58.2
			L106.7-58.2z"/>
	</g>
	<g class="st1">
		<path class="st2" d="M-87.7-58.2v6c1.1,0,2.1,0,3.2,0c27.2,0.6,50.3,8,68.9,21.9c9.4,7.1,15.2,14.1,17.9,17.9
			C-0.4-8.6-6.2-1.5-15.6,5.5c-18.5,13.9-41.7,21.3-68.9,21.9c-1.1,0-2.1,0-3.2,0c-32.9,0-65.1-12.1-86.2-22.3
			c-13.8-6.6-24.9-13.3-31.7-17.7c6.7-4.3,17.8-11,31.7-17.7c38.4-18.4,68.1-22.3,86.2-22.3V-58.2 M-87.7-58.2
			c-66,0-128.6,45.9-128.6,45.9s62.6,45.9,128.6,45.9c1.1,0,2.2,0,3.3,0C-15.1,32,9.4-12.3,9.4-12.3s-24.6-44.2-93.8-45.9
			C-85.4-58.2-86.6-58.2-87.7-58.2L-87.7-58.2z"/>
	</g>
	<g class="st1">
		<path class="st2" d="M161.6-164.3c-4.6,21.3-20,78.1-57.4,113.8C74.6-22.3,45.8-16.4,26.9-16.4c-5.4,0-9.6-0.5-12.3-0.9
			c-0.8-4.6-1.7-13.7,0-25.3c3.3-23,14.4-44.6,33.2-64.2c23.1-24.2,55-39,77.7-47.1C140.4-159.4,153.5-162.6,161.6-164.3
			 M169.2-171.9c0,0-79.3,12.2-125.7,60.9C-4.3-60.9,9.6-12.2,9.6-12.2s6.6,1.9,17.4,1.9c18.6,0,49.7-5.6,81.4-35.8
			C156.9-92.6,169.2-171.9,169.2-171.9L169.2-171.9z"/>
	</g>
	<g class="st1">
		<path class="st2" d="M-142.6-164.3c21.3,4.6,78.1,20,113.8,57.4C-10-87.2,1.1-65.6,4.4-42.7c1.7,11.6,0.8,20.7,0,25.3
			C1.7-17-2.5-16.5-7.9-16.5c-18.9,0-47.7-5.9-77.3-34.1c-24.2-23.1-39-55-47.1-77.7C-137.6-143.2-140.9-156.3-142.6-164.3
			 M-150.2-171.9c0,0,12.2,79.3,60.9,125.7C-57.6-16-26.5-10.4-7.9-10.4c10.8,0,17.4-1.9,17.4-1.9S23.4-61-24.4-111.1
			C-70.9-159.7-150.2-171.9-150.2-171.9L-150.2-171.9z"/>
	</g>
	<g class="st1">
		<path class="st2" d="M-161.9-124.6v6c24.9,0,72.1,3.3,109.2,25.5c23.3,14,39.8,31.8,49.1,53.1c4.7,10.8,6.2,19.7,6.7,24.4
			C-2.6-13-15.8-8-34-8c-19.1,0-38.6-5.3-58.1-15.7c-29.5-15.8-52.2-42.6-66.1-62.3c-9.2-13-15.8-24.8-19.6-32.1
			c4.1-0.2,9.5-0.4,15.8-0.4L-161.9-124.6 M-161.9-124.6c-15.3,0-25.1,1.2-25.1,1.2s32.9,73.2,92.2,105C-71.4-5.9-50.6-2-33.9-2
			C-7-2,9.5-12,9.5-12s0.4-50.6-59-86.2C-87.1-120.7-133.7-124.6-161.9-124.6L-161.9-124.6z"/>
	</g>
	<g class="st1">
		<path class="st2" d="M180.6-119.2c6.3,0,11.7,0.2,15.8,0.4c-3.8,7.3-10.4,19-19.6,32.1C151.7-51,127-33.1,110.7-24.4
			C91.3-14,71.7-8.7,52.6-8.7c-18.3,0-31.4-5-37.1-7.6c0.5-4.7,2-13.7,6.7-24.4C31.5-62,48-79.8,71.3-93.8
			C108.5-115.9,155.8-119.2,180.6-119.2 M180.6-125.2c-28.2,0-74.9,3.9-112.3,26.3c-59.4,35.6-59,86.2-59,86.2s16.4,10,43.4,10
			c16.7,0,37.5-3.9,60.9-16.4c59.3-31.8,92.2-105,92.2-105S195.9-125.2,180.6-125.2L180.6-125.2z"/>
	</g>
	<g class="st1">
		<path class="st2" d="M-72.8-211c6.8,4.7,17.6,12.7,29.4,23.4c32.4,29.3,47.1,56,53.8,73.2c9.8,25.3,11.9,49.6,6.1,72
			C13.6-31,9.3-23,6.8-19c-4.6-1.1-13.3-3.7-23.4-9.7c-20-11.8-35.6-30.4-46.6-55.3c-13.5-30.6-15-65.7-13.8-89.8
			C-76.3-189.6-74.3-202.9-72.8-211 M-76.9-220.9c0,0-19.1,78,8.1,139.5C-40.8-18,9.5-12.3,9.5-12.3S40.9-51.9,16-116.5
			C-8.3-179.2-76.9-220.9-76.9-220.9L-76.9-220.9z"/>
	</g>
	<g class="st1">
		<path class="st2" d="M91.8-211c1.5,8.1,3.5,21.4,4.3,37.3c2.2,43.6-6.3,72.9-13.8,89.8C71.3-59,55.6-40.5,35.7-28.6
			c-10.1,6-18.8,8.6-23.4,9.7c-2.5-4-6.8-12-9.7-23.4c-5.8-22.5-3.7-46.7,6.1-72c12.1-31.2,35.9-57.1,53.8-73.2
			C74.2-198.3,85-206.3,91.8-211 M95.9-220.9c0,0-68.6,41.6-92.9,104.4C-22-51.9,9.5-12.3,9.5-12.3s50.3-5.8,78.3-69.1
			C115-142.9,95.9-220.9,95.9-220.9L95.9-220.9z"/>
	</g>
</g>
<path class="st3" d="M0.5,4.2c0-0.2,0.1-0.4,0.1-0.6c0.2-0.7,0.5-1.2,1-1.7c0.3-0.3,0.7-0.7,1-1c0.5-0.5,1.2-0.5,1.6,0
	c0.9,0.9,1.9,1.9,2.8,2.8c0.5,0.5,0.5,1.2,0,1.6C6.9,5.6,6.6,5.8,6.4,6.1C5.8,6.7,5.7,7.5,6.1,8.2c1.1,2,2.7,3.6,4.7,4.7
	c0.7,0.4,1.5,0.3,2.1-0.3c0.2-0.2,0.5-0.5,0.7-0.7c0.5-0.5,1.2-0.5,1.7,0c0.9,0.9,1.9,1.9,2.8,2.8c0.5,0.5,0.5,1.1,0,1.6
	c-0.4,0.4-0.8,0.8-1.2,1.2c-0.5,0.5-1.2,0.8-2,0.9c-0.1,0-0.1,0-0.1,0c-0.3,0-0.6,0-0.8,0c-0.3,0-0.5-0.1-0.8-0.1
	c-1.2-0.2-2.3-0.7-3.3-1.3c-3.2-1.9-5.8-4.4-7.7-7.6C1.5,8.4,0.9,7.2,0.7,5.9C0.6,5.6,0.6,5.3,0.5,5C0.5,4.7,0.5,4.5,0.5,4.2z"/>
</svg>
