<?xml version="1.0" encoding="utf-8"?>
<!-- Generator: Adobe Illustrator 28.4.1, SVG Export Plug-In . SVG Version: 6.00 Build 0)  -->
<svg version="1.1" id="Layer_1" xmlns="http://www.w3.org/2000/svg" xmlns:xlink="http://www.w3.org/1999/xlink" x="0px" y="0px"
	 viewBox="0 0 320 80" style="enable-background:new 0 0 320 80;" xml:space="preserve">
<style type="text/css">
	.st0{fill:#FFFFFF;}
	.st1{fill:#FF0000;}
</style>
<rect x="133.3" class="st0" width="186.7" height="80"/>
<rect x="0" class="st1" width="133.3" height="80"/>
<g>
	<g>
		<path class="st1" d="M156.7,24.4c4.1,0,7.6,3.9,7.7,8.9h-3.8c0-2.4-1.7-4.4-3.8-4.4h-11.5c-2.1,0-3.8,2-3.8,4.4v13.3
			c0,2.4,1.7,4.4,3.8,4.4h11.5c2.1,0,3.8-2,3.8-4.4h3.8c0,4.7-3.4,8.9-7.7,8.9h-11.5c-4.1,0-7.7-3.9-7.7-8.9V33.3
			c0-4.8,3.4-8.7,7.7-8.9H156.7z"/>
		<path class="st1" d="M171.3,37.7h19.2v4.4h-19.2V51h23.1v4.4h-26.9v-31h26.9v4.4h-23.1V37.7z"/>
		<path class="st1" d="M224.4,37.7c0,4.7-3.4,8.9-7.7,8.9h-15.4v8.9h-3.8v-31h19.2c4.1,0,7.6,3.9,7.7,8.9V37.7z M220.5,33.3
			c0-2.4-1.7-4.4-3.8-4.4h-15.4v13.3h15.4c2.1,0,3.8-2,3.8-4.4V33.3z"/>
		<path class="st1" d="M227.4,55.4v-31h19.2c4,0,7.7,3.9,7.7,8.9c0,2.7-0.9,4.9-2.6,6.6c1.7,1.8,2.6,4,2.6,6.6
			c0,4.8-3.4,8.7-7.7,8.9H227.4z M231.3,37.7h15.4c2.1,0,3.8-2,3.8-4.4s-1.7-4.4-3.8-4.4h-15.4V37.7z M231.3,42.1V51h15.4
			c2.1,0,3.8-2,3.8-4.4c0-2.4-1.7-4.4-3.8-4.4H231.3z"/>
		<path class="st1" d="M257.8,24.4h3.8V49l19.2-24.6h3.8v31h-3.8v-25l-19.2,25h-3.8V24.4z"/>
		<path class="st1" d="M307.4,24.4c4.1,0,7.6,3.9,7.7,8.9h-3.8c0-2.4-1.7-4.4-3.8-4.4h-11.5c-2.1,0-3.8,2-3.8,4.4v13.3
			c0,2.4,1.7,4.4,3.8,4.4h11.5c2.1,0,3.8-2,3.8-4.4h3.8c0,4.7-3.4,8.9-7.7,8.9h-11.5c-4.1,0-7.7-3.9-7.7-8.9V33.3
			c0-4.8,3.4-8.7,7.7-8.9H307.4z"/>
	</g>
</g>
<g>
	<path class="st0" d="M31.9,46.6c0,4.7-3.4,8.9-7.7,8.9H5v-31h19.2c4.1,0,7.6,3.9,7.7,8.9V46.6z M28,33.3c0-2.4-1.7-4.4-3.8-4.4H8.8
		V51h15.4c2.1,0,3.8-2,3.8-4.4V33.3z"/>
	<path class="st0" d="M35.3,24.4h3.8v31h-3.8V24.4z"/>
	<path class="st0" d="M69.2,24.4v4.4L48,51h21.2v4.4H42.2V51l21.3-22.1H42.2v-4.4H69.2z"/>
	<path class="st0" d="M76.1,37.7h19.2v4.4H76.1V51h23.1v4.4H72.2v-31h26.9v4.4H76.1V37.7z"/>
	<path class="st0" d="M106.1,51h23.1v4.4h-26.9v-31h3.8V51z"/>
</g>
</svg>
